<?xml version="1.0" encoding="UTF-8" standalone="no"?>
<svg
   version="1.0"
   width="100.000000pt"
   height="100.000000pt"
   viewBox="0 0 100.000000 100.000000"
   preserveAspectRatio="xMidYMid meet"
   id="svg2"
   xmlns="http://www.w3.org/2000/svg">
  <defs
     id="defs2" />
  <g fill="#dad8d0">
  <path
     id="path1"
     d="M 0 999.99998 L 0 500.00486 L 0 -0.0049028125 L 1.2890625 -0.0049028125 L 1.2890625 998.71092 L 1000.0049 998.71092 L 1000.0049 999.99998 L 499.99512 999.99998 L 0 999.99998 z M 1000.0049 998.71092 L 1000.0049 500.00486 L 1000.0049 -0.0049028125 L 499.99512 -0.0049028125 L 1.2890625 -0.0049028125 L 1.2890625 -1.2939653 L 1001.2939 -1.2939653 L 1001.2939 998.71092 L 1000.0049 998.71092 z M 147.99316 888.99412 C 145.99317 887.99412 125.99314 880.99802 102.99316 872.99803 C 60.993206 857.99804 60 856.99798 60 812.99803 C 60 776.99806 66.003929 762.9941 89.003906 738.99412 L 119.00391 710.00486 L 377.00684 710.00486 C 519.00669 710.00486 675.99517 705.99997 724.99512 699.99998 C 836.99501 687.99999 881.00394 695.00392 914.00391 729.00389 C 936.00388 752.00386 937.99999 760.00294 930 793.00291 C 915.00002 862.00284 849.99303 886.00582 717.99316 871.00584 C 613.99327 860.00585 194.99509 866.99999 169.99512 879.99998 C 159.99513 885.99997 149.99316 888.99412 147.99316 888.99412 z M 269.20898 564.35545 C 230.84574 565.50389 153.62986 553.25583 130.00488 541.00584 C 88.004925 517.00586 72.005868 489.99702 81.005859 456.99705 C 93.005847 414.99709 115.99516 392.99607 154.99512 385.99607 C 186.99509 379.99608 442.99516 365.99315 484.99512 367.99314 C 625.99498 375.99314 673.00005 375.99314 720 367.99314 C 780.99994 358.99315 861.0049 372.00098 880.00488 396.00096 C 887.00488 403.00095 893.99707 435.00197 896.99707 467.00193 L 902.00684 524.9951 L 858.99902 538.999 C 826.99906 549.99899 747.00274 554.00584 558.00293 556.00584 C 416.00307 557.00584 291.99316 559.99315 282.99316 562.99314 C 279.36817 563.74314 274.68945 564.19139 269.20898 564.35545 z M 146.25 195.24412 C 133.00001 195.24412 122.49316 194.50291 117.99316 193.00291 C 92.993189 187.00292 94.003931 125.99605 119.00391 100.99607 C 137.00389 82.996092 154.9973 81.000957 386.99707 81.000957 C 522.99693 81.000957 678.00493 75.996069 730.00488 70.996074 C 830.00478 59.996085 864.00589 64.006839 891.00586 87.006816 C 909.00584 102.0068 904.99607 140.00486 885.99609 140.00486 C 879.9961 140.00486 880.99903 143.99901 888.99902 148.999 C 899.99901 155.999 895.999 161.99609 873.99902 175.99607 C 850.99905 191.99606 832.00091 193.99998 761.00098 189.99998 C 713.00102 187.99998 579.00086 185.99705 461.00098 186.99705 C 343.00109 186.99705 222.00095 190.00291 191.00098 193.00291 C 175.50099 194.50291 159.49999 195.24412 146.25 195.24412 z M 180 170.00486 C 185.99999 170.00486 190.00488 165.99997 190.00488 159.99998 C 190.00488 154.99998 185.99999 149.9951 180 149.9951 C 175.00001 149.9951 169.99512 154.99998 169.99512 159.99998 C 169.99512 165.99997 175.00001 170.00486 180 170.00486 z "
     transform="matrix(0.1,0,0,-0.1,0,99.999998)" />
  </g>
</svg>
