<?xml version="1.0" standalone="no"?>
<!DOCTYPE svg PUBLIC "-//W3C//DTD SVG 20010904//EN"
 "http://www.w3.org/TR/2001/REC-SVG-20010904/DTD/svg10.dtd">
<svg version="1.0" xmlns="http://www.w3.org/2000/svg" style="background-color:#1D0304"
 width="535.000000pt" height="535.000000pt" viewBox="0 0 535.000000 535.000000"
 preserveAspectRatio="xMidYMid meet">

<g transform="translate(0.000000,535.000000) scale(0.100000,-0.100000)"
fill="#dad8d0" stroke="none">
<path d="M3495 4944 c-16 -2 -77 -9 -135 -14 -58 -6 -161 -18 -230 -26 -97
-12 -136 -13 -180 -5 -75 15 -134 17 -207 8 -47 -6 -74 -4 -108 8 -57 19 -171
19 -205 0 -33 -19 -65 -18 -142 1 -53 14 -120 17 -438 16 -206 0 -449 -5 -540
-11 -231 -15 -453 -14 -542 3 -91 18 -233 18 -296 2 -73 -20 -112 -44 -179
-112 -155 -158 -253 -443 -253 -739 0 -89 6 -133 30 -230 34 -137 36 -168 14
-262 -17 -72 -14 -151 7 -212 12 -33 12 -33 28 -13 28 35 76 52 149 52 44 0
75 5 88 15 10 8 26 15 34 15 45 1 90 22 96 45 14 55 -54 119 -123 116 -67 -2
-83 -14 -83 -64 0 -48 -6 -59 -37 -76 -33 -17 -71 -13 -93 9 -31 31 -34 63
-10 118 22 50 23 51 102 78 97 32 158 28 234 -16 69 -39 87 -78 90 -195 5
-159 16 -275 26 -275 6 0 19 11 30 25 11 14 25 25 32 25 48 0 32 -78 -21 -104
-47 -22 -71 -20 -115 10 -29 20 -41 24 -51 15 -48 -39 -223 -65 -270 -39 -12
6 -32 13 -44 14 -21 2 -23 -1 -23 -52 0 -134 122 -240 275 -238 129 2 187 54
258 236 25 66 33 77 35 56 4 -37 28 -43 152 -39 58 2 150 4 205 4 55 -1 125
-1 155 -1 30 0 69 0 85 -1 17 -1 80 0 140 0 152 2 301 2 358 -1 51 -2 102 14
111 35 3 10 15 4 39 -20 29 -29 42 -35 79 -35 23 0 55 6 70 14 15 8 51 14 80
14 31 0 75 9 106 21 57 23 92 27 92 11 0 -5 17 -14 38 -21 l38 -11 12 -156 c6
-87 23 -216 37 -288 22 -115 24 -141 15 -204 -7 -48 -7 -92 0 -134 8 -50 7
-74 -6 -122 -29 -107 -30 -118 -26 -215 l4 -95 46 23 c32 16 63 23 104 23 66
0 62 -7 58 117 -1 47 4 74 20 108 25 52 124 145 185 175 96 47 259 51 368 10
32 -12 60 -20 63 -18 2 3 0 45 -5 94 -5 49 -6 134 -4 189 4 86 -13 332 -34
495 l-6 45 21 -25 c20 -24 24 -25 151 -25 73 0 134 4 140 10 5 6 13 22 16 37
6 22 1 32 -22 54 -15 14 -38 30 -50 35 -18 7 -23 17 -25 51 -4 100 3 153 28
188 50 74 142 122 186 99 28 -15 40 -79 29 -149 -6 -34 -8 -66 -6 -73 2 -7 6
-38 9 -69 l6 -58 -34 0 c-85 0 -110 -41 -62 -97 l24 -28 127 2 c112 1 130 4
147 21 15 15 18 27 13 50 -8 38 -29 56 -63 57 l-27 0 -1 155 c-1 178 -10 227
-51 278 -69 85 -210 82 -300 -6 l-24 -24 -22 33 c-25 37 -49 47 -122 48 -63 1
-95 -19 -95 -60 0 -34 39 -79 68 -79 11 0 24 -6 30 -12 10 -13 16 -130 13
-260 -1 -66 -2 -68 -27 -68 -15 0 -37 -12 -54 -28 l-28 -29 -14 101 c-12 91
-15 530 -5 824 l2 73 75 30 c276 108 423 136 555 105 78 -19 149 -56 166 -87
9 -18 5 -30 -26 -77 -20 -32 -48 -82 -62 -111 -51 -107 -40 -258 30 -398 47
-94 62 -146 93 -313 14 -80 30 -153 35 -162 12 -22 54 -44 99 -53 34 -6 36 -9
58 -88 14 -51 32 -92 48 -108 53 -55 176 -64 270 -19 27 13 82 56 122 96 126
126 148 206 139 519 -3 110 -13 254 -22 320 -8 66 -17 219 -20 340 -5 247 -20
350 -66 460 -54 125 -103 155 -219 131 -36 -8 -66 -13 -67 -12 -1 1 23 23 53
49 35 29 51 49 43 51 -40 13 -239 58 -344 77 -103 19 -160 22 -405 24 -157 1
-298 1 -315 -1z m-1434 -684 c180 -9 279 -22 384 -52 66 -19 75 -32 75 -108 0
-82 -15 -279 -35 -460 -8 -74 -19 -193 -24 -263 -5 -70 -10 -130 -12 -131 -2
-2 -35 -5 -74 -7 l-70 -4 -7 130 c-4 72 -7 153 -7 181 0 78 -25 103 -121 115
-68 9 -193 5 -225 -7 -7 -3 -18 -18 -25 -34 -17 -40 0 -68 48 -75 20 -3 46 -8
57 -10 11 -3 44 0 73 7 34 7 56 8 62 2 9 -9 16 -321 7 -330 -2 -2 -50 -5 -108
-7 -57 -2 -112 -8 -123 -14 -14 -8 -23 -5 -42 14 -22 22 -27 23 -123 17 l-99
-7 -6 49 c-4 27 -10 66 -15 87 -5 22 -5 40 1 43 7 5 3 283 -7 394 -8 101 -26
110 -199 106 -110 -2 -120 -4 -138 -25 -23 -29 -23 -68 0 -80 9 -5 63 -12 118
-16 l101 -7 0 -56 c0 -32 1 -66 1 -77 0 -11 0 -40 -1 -65 0 -25 1 -107 3 -183
2 -98 0 -141 -9 -150 -8 -8 -75 -12 -226 -14 l-214 -1 -6 46 c-3 26 -9 64 -14
85 -5 22 -5 40 1 43 7 5 3 283 -7 394 -8 97 -29 110 -175 107 -52 -1 -101 2
-108 6 -15 10 -16 107 -1 162 19 69 107 139 219 174 48 15 301 29 564 30 121
1 222 4 225 7 4 3 24 3 46 0 22 -4 128 -11 236 -16z m-1156 -490 l32 0 0 -57
c0 -32 1 -67 1 -78 0 -11 0 -40 -1 -65 0 -25 1 -107 3 -183 2 -98 0 -141 -9
-150 -7 -7 -51 -13 -107 -15 l-94 -4 21 54 c13 31 23 86 26 135 5 75 3 87 -22
139 -27 56 -28 58 -11 87 9 17 19 51 22 76 9 75 9 74 61 67 25 -3 60 -6 78 -6z
m2124 -119 c38 -26 62 -64 73 -112 11 -54 11 -46 5 -204 -6 -141 -2 -155 43
-155 33 0 53 -21 48 -52 -3 -20 -11 -24 -90 -34 -125 -17 -188 -2 -201 47 -6
24 25 39 79 39 l36 0 -7 98 c-5 61 -3 112 4 137 8 30 7 50 -5 92 -17 59 -35
70 -105 60 -35 -5 -55 -16 -125 -75 -28 -24 -54 -80 -54 -117 0 -16 0 -41 0
-55 0 -14 2 -46 6 -72 5 -44 9 -49 50 -68 37 -18 44 -26 44 -51 0 -25 -5 -30
-42 -40 -48 -13 -186 -6 -218 11 -39 21 -19 80 26 80 46 0 52 19 53 177 1 164
-6 191 -54 206 -44 14 -55 26 -55 58 0 37 36 53 100 44 53 -8 76 -26 85 -66 4
-16 10 -29 14 -29 4 0 23 15 43 33 69 61 109 77 178 70 25 -3 56 -13 69 -22z"/>
<path d="M2130 3883 c-40 -15 -60 -46 -60 -94 0 -55 25 -82 84 -93 63 -12 108
22 122 92 6 27 1 37 -29 67 -35 35 -73 44 -117 28z"/>
<path d="M2675 3371 c-6 -10 33 -36 41 -28 3 2 2 12 -2 21 -7 18 -29 22 -39 7z"/>
<path d="M3060 3335 c0 -8 5 -15 10 -15 6 0 10 7 10 15 0 8 -4 15 -10 15 -5 0
-10 -7 -10 -15z"/>
<path d="M3070 3215 c0 -8 2 -15 4 -15 2 0 6 7 10 15 3 8 1 15 -4 15 -6 0 -10
-7 -10 -15z"/>
<path d="M450 3380 c-19 -11 -51 -19 -70 -20 -155 -2 -262 -100 -179 -163 35
-25 140 -34 193 -15 50 17 96 80 103 141 3 24 1 51 -3 60 -8 13 -13 13 -44 -3z"/>
<path d="M4061 2148 c-39 -14 -55 -80 -23 -97 9 -5 63 -12 118 -16 l101 -7 0
-56 c0 -32 1 -66 1 -77 0 -11 0 -40 -1 -65 0 -25 1 -107 3 -183 2 -98 0 -141
-9 -150 -7 -7 -53 -13 -116 -15 -58 -2 -105 -8 -105 -13 0 -15 -20 -10 -51 12
-25 17 -41 20 -97 17 l-67 -3 -7 130 c-4 72 -7 153 -7 181 0 78 -25 103 -121
115 -68 9 -193 5 -225 -7 -7 -3 -18 -18 -25 -34 -17 -40 0 -68 48 -75 20 -3
46 -8 57 -10 11 -3 44 0 73 7 34 7 56 8 62 2 10 -10 16 -322 7 -330 -3 -3 -47
-5 -98 -6 -156 -2 -195 -34 -125 -104 28 -28 41 -34 77 -34 24 0 56 6 71 14
15 8 51 14 80 14 31 0 75 9 106 21 56 22 92 27 92 12 0 -13 88 -40 130 -41 19
0 87 1 150 1 146 2 300 2 367 -1 50 -2 90 11 105 34 4 6 8 25 8 43 0 53 -27
64 -141 56 l-97 -6 -6 49 c-4 27 -10 66 -15 87 -5 22 -5 40 1 43 5 3 6 81 3
182 -10 285 -12 293 -58 309 -35 13 -234 13 -266 1z"/>
<path d="M3640 2143 c-40 -15 -60 -46 -60 -94 0 -55 25 -82 84 -93 63 -12 108
22 122 92 6 27 1 37 -29 67 -35 35 -73 44 -117 28z"/>
<path d="M2995 2114 c-57 -31 -65 -44 -65 -99 0 -59 7 -65 68 -65 29 0 43 -8
79 -45 36 -38 43 -52 43 -84 0 -53 -37 -79 -127 -92 -37 -5 -69 -11 -71 -13
-2 -2 2 -65 8 -140 9 -105 9 -147 0 -185 -6 -27 -9 -58 -6 -68 3 -10 1 -36 -4
-58 -7 -30 -6 -45 5 -62 13 -19 21 -21 72 -16 126 12 233 -37 233 -105 0 -79
-40 -125 -130 -152 -80 -24 -106 -25 -153 -5 -54 22 -206 20 -312 -6 -97 -23
-128 -20 -192 17 -43 25 -43 25 -43 82 0 91 45 132 147 132 51 1 130 14 139
23 9 9 9 48 0 90 -5 27 -4 37 3 32 8 -4 10 56 8 202 l-3 208 -80 13 c-43 7
-89 20 -101 28 -22 14 -23 13 -23 -19 0 -42 36 -187 61 -245 24 -55 24 -60 -2
-64 -16 -2 -26 -22 -50 -91 -16 -48 -29 -103 -29 -121 0 -30 -2 -33 -32 -33
-77 0 -339 -34 -400 -51 -75 -21 -162 -70 -213 -119 -19 -18 -37 -33 -41 -33
-14 0 -124 -103 -118 -111 3 -5 -5 -35 -17 -67 -19 -47 -23 -78 -23 -172 -1
-100 2 -120 21 -156 32 -61 79 -101 168 -145 111 -54 213 -70 435 -68 201 2
326 15 635 65 496 80 542 86 720 87 137 0 190 -4 275 -21 81 -17 106 -19 110
-9 2 6 11 32 20 57 l15 45 94 3 93 3 -6 32 c-27 132 -30 168 -17 210 7 23 15
84 18 134 4 81 2 99 -17 137 -12 25 -37 59 -55 75 -99 87 -208 118 -452 129
-113 5 -178 13 -198 22 -35 18 -81 83 -88 125 -31 184 -59 255 -110 282 -16 8
-27 17 -25 21 33 63 43 108 39 188 -1 27 -7 33 -46 48 -53 21 -102 73 -110
118 -3 18 -9 53 -13 78 l-7 45 -50 2 c-31 2 -61 -3 -80 -13z"/>
<path d="M4897 1936 c-20 -8 -44 -19 -52 -26 -11 -9 -25 -8 -66 5 -48 16 -52
16 -85 -1 -51 -28 -54 -52 -11 -89 l35 -31 4 -150 3 -151 -33 -37 c-34 -39
-38 -56 -22 -87 9 -15 22 -19 68 -19 32 0 81 6 111 14 37 9 65 11 93 4 26 -5
52 -5 70 1 15 6 28 8 28 6 0 -3 11 0 25 5 20 8 32 6 52 -7 17 -12 53 -18 112
-21 86 -4 87 -4 99 22 19 43 14 66 -22 100 -50 45 -54 65 -46 201 8 136 -2
192 -47 246 -25 29 -30 31 -78 27 -28 -2 -64 -11 -80 -19 -28 -14 -33 -14 -60
3 -35 21 -47 22 -98 4z m30 -253 c-1 -65 3 -132 7 -150 6 -25 3 -36 -13 -52
-12 -12 -30 -21 -41 -21 -18 0 -20 7 -20 59 0 33 -5 63 -11 67 -8 4 -9 23 -4
58 4 28 9 60 10 71 4 43 33 84 61 85 7 0 11 -39 11 -117z m206 -28 c6 -112 4
-141 -8 -166 -18 -33 -22 -34 -50 -14 -25 19 -30 109 -13 214 11 71 37 119 57
107 4 -3 11 -66 14 -141z"/>
</g>
</svg>
