<?xml version="1.0" standalone="no"?>
<svg version="1.0" xmlns="http://www.w3.org/2000/svg"
 width="100.000000pt" height="25.000000pt" viewBox="0 0 100.000000 25.000000"
 preserveAspectRatio="xMidYMid meet">

<g transform="translate(0.000000,25.000000) scale(0.100000,-0.100000)"
fill="#dad8d0" stroke="none">
<path d="M108 217 c-23 -9 -28 -17 -28 -44 0 -43 23 -99 47 -111 11 -6 39 -7
73 -1 37 6 56 5 61 -3 4 -6 11 -8 16 -5 10 7 265 9 353 3 30 -2 87 -8 125 -14
87 -12 131 -6 150 21 20 29 19 67 -2 84 -10 8 -12 12 -5 8 16 -8 16 20 0 32
-7 5 -32 17 -55 26 -34 13 -43 14 -52 3 -14 -17 -596 -15 -628 3 -12 6 -23 11
-25 10 -2 -1 -15 -6 -30 -12z m72 -47 c0 -19 -11 -26 -23 -14 -8 8 3 34 14 34
5 0 9 -9 9 -20z"/>
</g>
</svg>
